<svg width="20" height="20" viewBox="0 0 20 20" fill="none" xmlns="http://www.w3.org/2000/svg">
<g clip-path="url(#clip0_171_379)">
<mask id="mask0_171_379" style="mask-type:luminance" maskUnits="userSpaceOnUse" x="0" y="0" width="20" height="20">
<path d="M19.3841 0.969238H0.560547V19.7928H19.3841V0.969238Z" fill="white"/>
</mask>
<g mask="url(#mask0_171_379)">
<path d="M19.384 10.3806C19.3729 8.5734 18.8481 6.8071 17.8715 5.2903C16.8949 3.77351 15.5073 2.56956 13.8726 1.82063C12.2379 1.0717 10.4244 0.809065 8.6461 1.06374C6.86784 1.31841 5.19913 2.07977 3.83703 3.25787C2.47493 4.43599 1.47633 5.98167 0.959143 7.71241C0.441955 9.44314 0.427778 11.2866 0.918289 13.0252C1.4088 14.7638 2.38351 16.3249 3.72733 17.524C5.07114 18.7232 6.72794 19.5104 8.50208 19.7927V13.1345H6.11336V10.3806H8.50208V8.28211C8.50208 5.8938 9.90727 4.57559 12.0569 4.57559C12.7627 4.58665 13.4667 4.64996 14.1633 4.76499V7.10311H12.9765C12.7735 7.07668 12.5674 7.0965 12.3732 7.16109C12.1789 7.22566 12.0015 7.33336 11.8542 7.4762C11.7069 7.61905 11.5934 7.79339 11.5222 7.98632C11.4508 8.17926 11.4236 8.38585 11.4423 8.59083V10.3778H14.0522L13.6353 13.1317H11.4423V19.7927C13.6624 19.4307 15.6815 18.2843 17.1371 16.5592C18.5926 14.8341 19.3893 12.6436 19.384 10.3806Z" fill="white"/>
</g>
</g>
<defs>
<clipPath id="clip0_171_379">
<rect width="20" height="20" fill="white"/>
</clipPath>
</defs>
</svg>
