<svg width="344" height="64" viewBox="0 0 344 64" fill="none" xmlns="http://www.w3.org/2000/svg">
<path d="M146.999 56.6506C149.025 56.6506 149.751 57.8935 149.751 58.9623C149.751 60.0312 149.025 61.3155 146.999 61.3155H145.657V63.8013H144.062V56.6506H146.999ZM145.657 59.6998H146.949C147.945 59.6998 148.097 59.2523 148.097 58.9623C148.097 58.6723 147.945 58.2166 146.949 58.2166H145.657V59.6998ZM146.999 56.3855H143.792V63.9918H145.927V61.5061H146.999C149.228 61.5061 150.013 60.1224 150.013 58.9375C150.013 57.156 148.502 56.3606 146.999 56.3606V56.3855ZM145.927 58.4735H146.949C147.649 58.4735 147.835 58.7138 147.835 58.9623C147.835 59.2109 147.649 59.4429 146.949 59.4429H145.927V58.4735Z" fill="#312714"/>
<path d="M158.277 56.6506L161.653 63.7267H159.846L159.002 62.1441H155.888L155.103 63.7267H153.28L156.656 56.6506H158.293H158.277ZM156.487 60.6113H158.403L157.5 58.4652L156.487 60.6113ZM158.462 56.3855H156.487L156.42 56.5346L153.043 63.619L152.866 63.9919H155.255L155.322 63.8427L156.04 62.401H158.825L159.593 63.851L159.669 63.9919H162.058L161.881 63.619L158.504 56.5346L158.437 56.3855H158.462ZM156.901 60.3544L157.483 59.1115L158.006 60.3544H156.901Z" fill="#312714"/>
<path d="M169.815 56.6506C171.84 56.6506 172.558 57.8935 172.558 58.9624C172.575 59.3763 172.469 59.7861 172.253 60.1421C172.038 60.4981 171.721 60.7849 171.343 60.9675L173.318 63.7267H171.427L169.654 61.3156H168.473V63.8013H166.869V56.6506H169.815ZM168.473 59.6998H169.764C170.912 59.6998 170.912 59.2524 170.912 58.9624C170.912 58.6724 170.912 58.2167 169.764 58.2167H168.473V59.6998ZM169.815 56.3855H166.607V63.9919H168.734V61.5061H169.502L171.191 63.8593L171.275 63.967H173.807L173.512 63.5527L171.705 61.067C172.062 60.8429 172.354 60.5321 172.552 60.1648C172.75 59.7975 172.848 59.3862 172.836 58.9707C172.836 57.6864 171.9 56.3938 169.823 56.3938L169.815 56.3855ZM168.734 58.4735H169.764C170.608 58.4735 170.608 58.7138 170.608 58.9624C170.608 59.211 170.608 59.443 169.764 59.443H168.734V58.4735Z" fill="#312714"/>
<path d="M180.886 56.6506V63.7267H179.291V56.6506H180.886ZM181.156 56.3855H179.021V63.9919H181.156V56.3855Z" fill="#312714"/>
<path d="M189.623 56.5263C190.476 56.5672 191.291 56.8816 191.944 57.4212L191.024 58.5812C190.637 58.2135 190.134 57.9857 189.598 57.9349C189.134 57.9349 188.754 58.1172 188.754 58.4818C188.754 58.8464 189.243 59.0535 190.205 59.3104C191.168 59.5672 192.67 60.139 192.586 61.6884C192.586 62.5667 192.096 63.735 189.657 63.735C189.139 63.7342 188.627 63.6252 188.156 63.4152C187.684 63.2052 187.264 62.899 186.922 62.517L187.808 61.3155C188.316 61.8782 189.015 62.2404 189.775 62.3347C190.324 62.3347 190.94 62.1193 190.94 61.6553C190.94 61.1913 190.602 61.0504 189.581 60.7273C188.56 60.4041 187.049 59.8987 187.133 58.3658C187.184 57.3881 187.927 56.5098 189.623 56.5098V56.5263ZM189.623 56.2446C187.682 56.2446 186.922 57.3301 186.863 58.3492C186.762 60.1141 188.475 60.6527 189.496 60.9758C190.518 61.299 190.678 61.415 190.678 61.6553C190.678 61.8956 190.214 62.0696 189.775 62.0696C189.094 61.9752 188.468 61.6463 188.011 61.1415L187.792 60.9013L187.597 61.1581L186.669 62.3678L186.551 62.5253L186.677 62.6827C187.043 63.0978 187.495 63.4305 188.003 63.6579C188.512 63.8853 189.064 64.0021 189.623 64.0001C192.155 64.0001 192.763 62.7573 192.822 61.705C192.89 60.4787 192.02 59.5921 190.29 59.0701C189.505 58.8464 189.032 58.6889 189.032 58.4652C189.032 58.2415 189.345 58.1835 189.64 58.1835C190.106 58.2351 190.542 58.436 190.881 58.7552L191.092 58.9624L191.277 58.7304L192.197 57.5704L192.349 57.3798L192.164 57.2141C191.456 56.6184 190.563 56.2766 189.632 56.2446H189.623Z" fill="#312714"/>
<path d="M24.6712 0.397949C30.799 0.397949 33.4577 4.25085 33.4577 7.62318C33.4577 13.357 25.8613 19.853 19.1512 19.853C15.3108 19.853 12.9053 17.8064 12.9053 14.4424C12.9053 9.47091 18.4591 5.096 23.5655 5.096C26.7138 5.096 28.9167 6.69516 28.9167 8.94062C28.9167 11.5506 25.9373 14.2435 23.076 14.2435C21.8099 14.2435 20.949 13.7215 20.949 12.8764C20.949 11.6749 22.5442 10.1503 27.5747 10.0261C27.6538 9.6835 27.6934 9.3333 27.6929 8.98205C27.6929 6.81945 26.182 5.49372 23.5655 5.49372C18.9486 5.49372 14.1291 9.63663 14.1291 14.3595C14.1291 17.4916 16.2139 19.4553 19.4804 19.4553C25.3211 19.4553 31.7781 13.2575 31.7781 7.58175C31.7781 4.25085 29.5413 0.828811 24.3842 0.828811C14.9056 0.828811 3.21565 11.9898 3.21565 23.3082C3.21565 29.1994 6.36393 32.4889 11.9599 32.4889C16.8216 32.4889 24.2239 28.2134 30.9256 17.301L31.2885 17.3839C24.7556 28.2134 17.193 32.8949 11.8164 32.8949C5.28356 32.8949 1.60353 29.4811 1.60353 23.3414C1.58665 11.9152 14.2557 0.397949 24.6712 0.397949ZM23.076 13.8375C24.1055 13.7535 25.0842 13.3623 25.8808 12.7166C26.6773 12.0709 27.2537 11.2014 27.5325 10.2249C24.2661 10.3078 21.7677 11.1944 21.7677 12.7521C21.7677 13.4398 22.2235 13.8375 23.076 13.8375Z" fill="#D61116"/>
<path d="M38.2773 15.0308C42.9786 7.82212 48.7012 2.80921 56.669 2.80921C61.6066 2.80921 64.6705 4.81437 64.6705 8.1867C64.6705 12.4373 59.9354 14.8153 57.4033 15.6439L57.3189 15.4036C59.6907 14.5751 63.5311 12.1887 63.5311 8.14527C63.5311 5.09609 61.4041 3.17378 56.7787 3.17378C46.6502 3.17378 41.3328 12.4456 38.4377 16.8951L29.4571 31.5693C24.4772 39.4739 18.5689 48.4226 8.00996 48.4226C3.06387 48.4226 0 46.4009 0 43.0865C0 38.8359 4.4481 36.0519 7.27564 35.5879L7.35161 35.8282C5.63137 36.1676 4.07968 37.0708 2.95096 38.3896C1.82225 39.7084 1.1835 41.3646 1.13946 43.0865C1.13946 46.1357 3.26644 48.058 7.8918 48.058C18.0709 48.058 23.4222 38.8773 28.1995 31.1715L37.045 16.9862L38.2773 15.0308ZM40.3537 17.4088C35.2894 18.1214 33.0527 17.9557 32.5294 15.4616C32.1523 16.1298 31.7381 16.777 31.2886 17.4005L30.9257 17.3177L33.5591 13.1748H33.9474C33.1877 17.906 36.8171 17.3177 40.3537 16.9282C46.3886 16.2654 49.5959 17.0857 49.5959 17.0857L49.233 17.4585C49.233 17.4585 46.2029 16.5719 40.3537 17.4005V17.4088Z" fill="#D61116"/>
<path d="M45.9162 15.0309C50.6428 7.82224 56.3401 2.80933 64.3079 2.80933C69.254 2.80933 72.3179 4.81449 72.3179 8.18682C72.3179 12.4374 67.5743 14.8155 65.0422 15.644L64.9578 15.4038C67.3296 14.5752 71.17 12.1889 71.17 8.14539C71.17 5.09621 69.043 3.1739 64.4176 3.1739C54.2891 3.1739 48.9716 12.4457 46.0681 16.8952L37.0875 31.5694C32.0739 39.474 26.1656 48.4227 15.6404 48.4227C10.6943 48.4227 7.59668 46.401 7.59668 43.0867C7.59668 38.836 12.0785 35.9029 16.1299 36.0851V36.342C12.7538 36.226 8.75302 39.0349 8.75302 43.0867C8.75302 46.1358 10.88 48.0581 15.5054 48.0581C25.6761 48.0581 31.0357 38.8775 35.813 31.1717L45.9162 15.0309Z" fill="#D61116"/>
<path d="M43.283 29.9205L48.8874 21.6347H50.3561L44.5913 30.2437C44.2567 30.6312 44.0454 31.1065 43.9836 31.6108C43.9752 31.7041 43.987 31.798 44.0182 31.8864C44.0495 31.9748 44.0994 32.0557 44.1648 32.1238C44.2302 32.1919 44.3095 32.2456 44.3976 32.2814C44.4856 32.3173 44.5804 32.3344 44.6757 32.3317C46.0683 32.3317 48.3557 30.9231 55.6482 24.4685L55.9352 24.7502C50.4742 29.6057 46.8449 32.8951 44.1861 32.8951C43.2492 32.8951 42.498 32.4146 42.498 31.6108C42.5955 30.987 42.8672 30.4019 43.283 29.9205ZM50.2295 17.6078C50.2295 17.385 50.2968 17.1671 50.4229 16.9818C50.5491 16.7965 50.7283 16.652 50.9381 16.5667C51.1478 16.4814 51.3786 16.4591 51.6013 16.5026C51.824 16.5461 52.0285 16.6534 52.1891 16.811C52.3496 16.9686 52.4589 17.1694 52.5032 17.388C52.5475 17.6066 52.5248 17.8332 52.4379 18.0391C52.351 18.245 52.2039 18.421 52.0151 18.5448C51.8263 18.6686 51.6044 18.7347 51.3774 18.7347C51.2263 18.7358 51.0765 18.7074 50.9368 18.6512C50.797 18.5949 50.67 18.512 50.5632 18.4071C50.4564 18.3022 50.3719 18.1776 50.3146 18.0404C50.2573 17.9031 50.2284 17.7561 50.2295 17.6078Z" fill="#D61116"/>
<path d="M56.83 32.8951C54.5426 32.8951 53.1162 31.5279 53.1162 29.5807C53.1162 25.4875 58.2986 21.2949 63.2447 21.2949C65.0425 21.2949 66.4014 22.1235 66.4014 23.3167C66.4014 24.1452 66.0385 24.6424 65.5574 24.6424C65.0763 24.6424 64.629 24.1038 64.629 23.1758C64.6575 22.9774 64.6393 22.7752 64.5756 22.5848C64.512 22.3944 64.4047 22.2208 64.262 22.0775C64.1193 21.9343 63.945 21.825 63.7526 21.7583C63.5601 21.6916 63.3546 21.6691 63.1519 21.6926C58.9907 21.6926 54.7115 25.9433 54.7115 30.0364C54.7115 31.561 55.412 32.5222 57.041 32.5222C59.6997 32.5222 63.2532 30.7987 74.04 21.6926L74.4114 21.9329C63.4895 30.9645 59.7757 32.8951 56.83 32.8951Z" fill="#D61116"/>
<path d="M68.434 29.9205L74.03 21.6347H75.4987L69.7423 30.2437C69.4063 30.6312 69.1923 31.1061 69.1261 31.6108C69.1177 31.7047 69.1297 31.7994 69.1614 31.8884C69.1931 31.9774 69.2439 32.0587 69.3102 32.1269C69.3765 32.1952 69.4569 32.2487 69.5459 32.284C69.635 32.3193 69.7307 32.3356 69.8267 32.3317C71.4135 32.3317 74.1144 30.5254 83.9982 21.6596L84.3273 21.8998C77.0179 28.2385 72.477 32.8951 69.3287 32.8951C68.3918 32.8951 67.6406 32.4145 67.6406 31.6108C67.7352 30.9846 68.0105 30.398 68.434 29.9205ZM75.3805 17.6078C75.3805 17.3846 75.448 17.1664 75.5746 16.9809C75.7011 16.7954 75.8808 16.651 76.0911 16.5659C76.3013 16.4809 76.5326 16.4591 76.7555 16.5032C76.9784 16.5474 77.1829 16.6555 77.3431 16.814C77.5033 16.9724 77.6119 17.1739 77.6553 17.3931C77.6986 17.6122 77.6746 17.839 77.5865 18.0448C77.4983 18.2506 77.3499 18.426 77.16 18.5488C76.9701 18.6716 76.7473 18.7363 76.52 18.7347C76.3696 18.7347 76.2207 18.7055 76.0819 18.6487C75.9431 18.592 75.8172 18.5089 75.7112 18.4041C75.6053 18.2994 75.5216 18.1751 75.4648 18.0384C75.408 17.9017 75.3794 17.7554 75.3805 17.6078Z" fill="#D61116"/>
<path d="M86.8274 32.895C85.8821 32.895 85.1393 32.4476 85.1393 31.5278C85.184 30.9452 85.3978 30.3874 85.7554 29.9204L89.714 24.0706C90.0613 23.6294 90.2748 23.101 90.3302 22.546C90.3302 22.0654 90.0854 21.7174 89.2667 21.7174C87.3085 21.7174 81.6703 27.5175 79.1382 31.2627L78.2941 32.4641H76.8086L84.042 21.6346H85.6288L82.0923 26.9292C85.2659 23.5486 88.0006 21.2617 89.6887 21.2617C90.997 21.2617 91.7313 21.8252 91.7313 22.7034C91.6505 23.3527 91.3809 23.9655 90.9547 24.4683L87.0806 30.2684C86.7372 30.6512 86.5221 31.1286 86.4644 31.6356C86.4644 32.0747 86.7514 32.3564 87.3085 32.3564C88.6168 32.3564 90.6171 31.1881 96.593 26.0178L96.9137 26.2581C92.339 30.2435 89.1907 32.895 86.8274 32.895Z" fill="#D61116"/>
<path d="M118.166 29.8292C118.166 28.1057 119.145 26.4568 120.327 24.7748L126.987 15.2296C129.316 11.8572 130.261 9.97636 130.261 8.0872C130.219 5.80031 129.139 0.397963 120.327 0.397963C108.924 0.397963 101.758 9.14778 101.758 14.0033C101.758 16.2073 103.151 17.9722 106.62 17.9722C112.3 17.9722 117.128 13.3984 117.128 10.0261C117.128 8.58434 116.284 7.58176 114.512 7.58176C110.916 7.58176 107.886 11.2689 106.417 13.0753H106.13L105.97 12.9593C107.363 11.3021 110.469 7.15918 114.554 7.15918C116.841 7.15918 118.436 8.41034 118.436 10.0924C118.436 13.4067 112.756 18.3782 106.459 18.3782C102.619 18.3782 100.205 16.5304 100.205 13.5641C100.18 7.82205 108.561 0.000244141 120.082 0.000244141C129.89 0.000244141 131.604 5.53517 131.604 8.1452C131.604 9.98465 130.759 11.9567 128.497 15.2793C126.987 17.4502 124.277 21.3776 121.509 25.3548C120.327 27.0783 119.551 28.6029 119.551 29.8457C119.529 30.1426 119.571 30.4407 119.676 30.7201C119.78 30.9996 119.944 31.254 120.156 31.4664C120.369 31.6788 120.625 31.8444 120.908 31.9521C121.19 32.0599 121.493 32.1073 121.796 32.0912C125.071 32.0912 131.08 26.838 133.486 24.0291L146.72 4.4083H148.358L130.869 30.3677C130.518 30.7833 130.28 31.2793 130.177 31.8095C130.177 32.1326 130.464 32.3315 130.869 32.3315C132.743 32.3315 138.921 26.838 144.889 21.6594L144.154 22.8194C140.111 26.316 133.072 32.8949 130.38 32.8949C129.443 32.8949 128.784 32.4143 128.784 31.6106C128.848 31.0043 129.088 30.4289 129.477 29.9534L131.933 26.3077C127.155 30.7986 123.965 32.8866 121.306 32.8866C120.887 32.92 120.466 32.864 120.072 32.7225C119.677 32.581 119.318 32.3574 119.02 32.0669C118.722 31.7764 118.491 31.426 118.344 31.0398C118.196 30.6535 118.136 30.2405 118.166 29.8292Z" fill="#D61116"/>
<path d="M148.197 32.315C149.792 32.315 152.485 30.5087 162.377 21.6429L162.698 21.8832H162.74C155.388 28.2384 150.856 32.895 147.708 32.895C146.762 32.895 146.019 32.4476 146.019 31.5278C146.064 30.9452 146.278 30.3874 146.636 29.9204L150.603 24.0706C150.944 23.6271 151.155 23.0995 151.21 22.546C151.21 22.0654 150.966 21.7174 150.147 21.7174C148.189 21.7174 142.998 26.8464 140.508 30.575L139.267 32.489H137.672L144.905 21.6594H146.501L143.487 26.1172C146.602 22.9686 148.813 21.2617 150.535 21.2617C151.843 21.2617 152.578 21.8252 152.578 22.7034C152.493 23.3516 152.224 23.9633 151.801 24.4683L147.919 30.2684C147.575 30.6512 147.36 31.1286 147.302 31.6356C147.336 32.0498 147.623 32.315 148.197 32.315Z" fill="#D61116"/>
<path d="M156.774 29.9205L162.378 21.6347H163.847L158.082 30.2437C157.747 30.6312 157.536 31.1065 157.474 31.6108C157.466 31.7041 157.478 31.798 157.509 31.8864C157.54 31.9748 157.59 32.0557 157.656 32.1238C157.721 32.1919 157.8 32.2456 157.888 32.2814C157.976 32.3173 158.071 32.3344 158.166 32.3317C159.762 32.3317 162.454 30.5254 172.346 21.6596L172.676 21.8999C165.324 28.2385 160.791 32.8951 157.643 32.8951C156.706 32.8951 155.955 32.4146 155.955 31.6108C156.062 30.9835 156.346 30.3981 156.774 29.9205ZM163.746 17.6078C163.746 17.385 163.813 17.1671 163.939 16.9818C164.065 16.7965 164.244 16.652 164.454 16.5667C164.664 16.4814 164.895 16.4591 165.117 16.5026C165.34 16.5461 165.545 16.6534 165.705 16.811C165.866 16.9686 165.975 17.1694 166.019 17.388C166.064 17.6066 166.041 17.8332 165.954 18.0391C165.867 18.245 165.72 18.421 165.531 18.5448C165.342 18.6686 165.121 18.7347 164.893 18.7347C164.742 18.7358 164.593 18.7074 164.453 18.6512C164.313 18.5949 164.186 18.512 164.079 18.4071C163.972 18.3022 163.888 18.1776 163.831 18.0404C163.773 17.9031 163.744 17.7561 163.746 17.6078Z" fill="#D61116"/>
<path d="M166.377 31.2462C166.429 30.5424 166.7 29.8713 167.153 29.3239L172.344 21.6595H173.872L168.276 29.9453C167.905 30.4083 167.676 30.9662 167.618 31.5528C167.618 32.0748 167.989 32.3814 168.681 32.3814C170.479 32.3814 172.766 30.5336 176.894 25.7527C176.2 24.9869 175.797 24.0092 175.754 22.9853C175.754 21.8667 176.328 21.179 176.936 21.179C177.544 21.179 178.202 22.1815 178.202 23.3084C178.212 24.1935 177.947 25.0605 177.442 25.7942C178.027 26.5491 178.849 27.0937 179.78 27.3436L179.612 27.6005C178.629 27.3383 177.768 26.7534 177.172 25.9433C172.226 31.7434 170.15 32.7625 168.352 32.7625C166.993 32.8122 166.377 32.1328 166.377 31.2462Z" fill="#D61116"/>
<path d="M188.688 21.2617C190.486 21.2617 191.676 22.0903 191.676 23.1426C191.676 25.272 186.612 29.2741 180.948 27.9484C180.469 28.831 180.198 29.8078 180.155 30.807C180.155 31.9256 180.433 32.4144 181.581 32.4144C185.565 32.4144 190.646 29.3404 195.635 22.9437H196.09C190.553 29.821 185.565 32.8867 181.379 32.8867C179.167 32.8867 178.56 31.9173 178.56 30.3595C178.56 26.6724 184.561 21.2617 188.688 21.2617ZM190.081 23.1426C190.111 22.9446 190.094 22.7426 190.031 22.5521C189.969 22.3616 189.862 22.1878 189.72 22.0443C189.578 21.9008 189.404 21.7914 189.212 21.7247C189.02 21.6579 188.815 21.6356 188.612 21.6594C186.08 21.6594 182.704 24.6258 181.016 27.6749C186.164 28.8018 190.081 24.7418 190.081 23.1426Z" fill="#D61116"/>
<path d="M209.653 21.6594L209.982 21.8997C202.664 28.2383 198.132 32.895 194.975 32.895C194.038 32.895 193.287 32.4144 193.287 31.6107C193.388 30.9994 193.656 30.4265 194.064 29.9535L199.254 22.2974C198.394 22.8545 197.39 23.1592 196.359 23.1757C195.515 23.1757 194.055 22.7034 194.055 21.444C194.055 18.7097 197.347 16.1162 198.9 16.1162C199.744 16.1162 200.149 16.5139 200.107 17.1934C200.107 18.4362 198.301 20.6485 196.208 22.8277C197.22 23.0514 198.908 22.2643 199.584 21.6926H201.162L195.389 30.2435C195.054 30.631 194.843 31.1064 194.781 31.6107C194.773 31.7039 194.784 31.7978 194.816 31.8862C194.847 31.9746 194.897 32.0555 194.962 32.1236C195.028 32.1917 195.107 32.2454 195.195 32.2813C195.283 32.3171 195.378 32.3342 195.473 32.3315C197.068 32.315 199.761 30.5252 209.653 21.6594ZM195.904 22.6703C197.963 20.516 199.558 18.4445 199.677 17.2845C199.719 16.7211 199.491 16.4559 198.917 16.4559C197.305 16.4891 194.013 21.6511 195.904 22.6703Z" fill="#D61116"/>
<path d="M203.279 30.6577C203.6 32.1823 204.258 32.87 205.279 32.87C206.174 32.87 208.259 32.1491 208.259 27.7328C208.259 26.4899 208.141 25.3299 208.056 24.3604C207.972 23.5982 207.963 23.449 207.963 23.333C207.963 20.9053 209.652 18.8752 210.96 18.8752C211.736 18.8752 211.5 20.839 210.014 21.9161L209.449 22.115V22.2393C209.352 22.932 209.352 23.6346 209.449 24.3273C209.525 25.3299 209.609 26.4899 209.609 27.7328C209.609 32.3894 206.419 33.1848 205.389 33.1848C204.081 33.1848 203.271 32.3563 202.941 30.6991L203.279 30.6577Z" fill="#D61116"/>
<path d="M223.097 31.5692C223.2 30.8765 223.492 30.224 223.941 29.68L232.567 16.8453C237.555 8.94892 243.48 0.000244141 254.056 0.000244141C259.002 0.000244141 262.066 2.00541 262.066 5.37773C262.066 9.62835 257.331 12.0064 254.79 12.835L254.714 12.5947C257.086 11.7661 260.927 9.38807 260.927 5.3363C260.927 2.28713 258.8 0.36482 254.174 0.36482C243.928 0.397963 238.576 9.58693 233.799 17.2844L225.3 29.9203C224.91 30.3992 224.656 30.971 224.565 31.5775C224.565 32.1326 224.894 32.2983 225.502 32.2983C227.503 32.2983 230.448 30.0529 232.736 27.5257L233.107 27.766C230.735 30.3677 227.958 32.8618 225.181 32.8618C223.831 32.8949 223.097 32.4143 223.097 31.5692Z" fill="#D61116"/>
<path d="M239.81 27.559L240.173 27.7992C237.802 30.401 235.025 32.895 232.248 32.895C230.897 32.895 230.163 32.4144 230.163 31.5693C230.268 30.877 230.559 30.2248 231.007 29.6801L247.23 5.73413H248.538L232.366 29.9204C231.976 30.3993 231.723 30.9711 231.632 31.5776C231.632 32.1327 231.961 32.2984 232.577 32.2984C234.577 32.315 237.515 30.0861 239.81 27.559Z" fill="#D61116"/>
<path d="M313.209 5.37765C313.209 2.32847 311.082 0.406162 306.457 0.406162C302.992 0.404783 299.628 1.54569 296.902 3.64591C297.929 4.92987 298.49 6.51299 298.498 8.14511C298.498 11.3103 295.965 14.9643 292.589 16.3646C293.314 16.8993 293.895 17.5986 294.283 18.4026C294.671 19.2065 294.855 20.0909 294.818 20.9798C294.818 26.8379 287.398 32.8948 280.376 32.8948C277.591 32.8948 275.632 31.9668 274.468 30.6079C272.415 31.7153 270.108 32.2859 267.766 32.2651C263.031 32.2651 260.541 30.1025 260.541 26.0093H260.988C260.988 29.3236 262.904 31.8674 267.741 31.8674C269.991 31.876 272.199 31.2645 274.113 30.1025C273.503 29.1831 273.177 28.1094 273.176 27.0119C273.176 22.869 277.751 18.5852 282.326 18.5852C282.807 18.5765 283.287 18.6322 283.752 18.7509L284.985 16.8204C287.964 12.0892 291.273 6.95195 295.687 3.62106C294.379 1.85618 291.889 0.373019 287.247 0.373019C275.844 0.373019 268.678 9.12283 268.678 13.9783C268.678 16.1823 270.07 17.9472 273.539 17.9472C279.22 17.9472 284.039 13.3735 284.039 10.0011C284.039 8.5594 283.195 7.55682 281.423 7.55682C277.827 7.55682 274.805 11.244 273.337 13.0503H273.05L272.889 12.9343H272.847C274.231 11.2771 277.337 7.13424 281.423 7.13424C283.718 7.13424 285.305 8.37711 285.305 10.0591C285.305 13.3735 279.625 18.3449 273.337 18.3449C269.496 18.3449 267.082 16.4972 267.082 13.5309C267.074 7.82196 275.455 0.000157356 286.976 0.000157356C291.923 0.000157356 294.775 1.40046 296.455 3.13219C299.326 1.08211 302.789 -0.015118 306.339 0.000157356C311.285 0.000157356 314.349 2.00532 314.349 5.37765C314.349 9.62827 309.614 12.0063 307.082 12.8349L306.997 12.5946C309.369 11.8323 313.209 9.42941 313.209 5.37765ZM274.924 29.5639C278.063 27.3185 280.68 23.5816 283.541 19.1321C283.138 19.0525 282.728 19.0136 282.317 19.0161C278.148 19.0161 274.307 23.159 274.307 26.9953C274.296 27.8881 274.507 28.7701 274.924 29.5639ZM280.435 32.4888C286.892 32.4888 293.29 25.6696 293.29 20.4578C293.338 19.7566 293.225 19.0537 292.959 18.4011C292.693 17.7486 292.281 17.163 291.754 16.6878C291.067 16.8952 290.354 17.004 289.635 17.0109C288.648 17.0109 287.626 16.7706 287.626 16.1823C287.626 15.5941 288.47 15.2626 289.551 15.2626C290.475 15.271 291.375 15.5604 292.125 16.0912C293.613 15.3149 294.86 14.1598 295.736 12.747C296.613 11.3343 297.085 9.71612 297.105 8.06225C297.119 6.74326 296.781 5.4436 296.126 4.29221C292.041 7.66453 289.019 12.7189 286.2 17.2844L285.01 19.1735C285.682 19.4474 286.259 19.9058 286.672 20.4936C287.085 21.0815 287.317 21.7739 287.339 22.4878C287.339 25.4127 283.499 26.7799 282.765 27.0202L282.68 26.7799C283.668 26.4567 286.529 25.1227 286.529 22.4878C286.53 21.8846 286.363 21.2926 286.046 20.7758C285.729 20.2589 285.274 19.8367 284.731 19.5547C281.743 24.1284 278.823 27.8985 275.286 30.1108C275.879 30.8922 276.659 31.5181 277.557 31.9329C278.455 32.3477 279.444 32.5386 280.435 32.4888ZM289.593 16.5718C290.204 16.5781 290.812 16.4828 291.391 16.2901C290.877 15.8592 290.226 15.6188 289.551 15.6106C288.859 15.6106 288.487 15.7681 288.487 16.1326C288.487 16.4972 288.774 16.5718 289.593 16.5718Z" fill="#D61116"/>
<path d="M301.326 31.8095L299.933 31.6107C299.968 31.0709 300.168 30.5541 300.507 30.1275L300.625 29.9618L301.115 29.2823H301.444L300.507 30.1109C298.338 31.9918 296.54 32.8784 294.869 32.8784C293.518 32.8784 292.784 32.3978 292.784 31.5527C292.888 30.86 293.179 30.2075 293.628 29.6635L299.064 21.6428H300.575L294.979 29.9286C294.589 30.4075 294.335 30.9793 294.244 31.5858C294.244 32.1409 294.574 32.4144 295.181 32.4144C297.182 32.4144 300.659 29.9286 303.149 26.2332L306.213 21.6594H307.808L302.001 30.3678C301.662 30.7888 301.431 31.283 301.326 31.8095ZM299.933 31.6107C299.933 32.4392 300.625 32.895 301.621 32.895C303.909 32.895 305.546 30.4092 307.918 27.7992L307.546 27.5589C305.259 30.0861 303.504 32.3315 301.993 32.3315C301.503 32.3315 301.301 32.0498 301.301 31.8095L299.933 31.6107Z" fill="#D61116"/>
<path d="M305.064 31.5692C305.166 30.8758 305.457 30.2227 305.908 29.68L314.526 16.8453C319.531 8.94892 325.457 0.000244141 335.999 0.000244141C340.936 0.000244141 344 2.00541 344 5.37773C344 9.62835 339.265 12.0064 336.733 12.835L336.649 12.5947C339.02 11.7661 342.861 9.38807 342.861 5.3363C342.861 2.28713 340.734 0.36482 336.108 0.36482C325.938 0.36482 320.586 9.55378 315.801 17.2513L307.234 29.9203C306.844 30.3992 306.59 30.971 306.499 31.5775C306.499 32.1326 306.828 32.2983 307.436 32.2983C309.445 32.2983 312.382 30.0529 314.67 27.5257L315.041 27.766C312.669 30.3677 309.892 32.8618 307.115 32.8618C305.799 32.8949 305.064 32.4143 305.064 31.5692Z" fill="#D61116"/>
<path d="M316.331 35.6293L319.893 30.1275C317.732 32.0084 315.934 32.895 314.255 32.895C312.904 32.895 312.17 32.4144 312.17 31.5693C312.275 30.8769 312.566 30.2247 313.014 29.6801L318.45 21.6594H319.96L314.364 29.9452C313.971 30.422 313.717 30.9948 313.63 31.6024C313.63 32.1575 313.951 32.431 314.567 32.431C316.567 32.431 320.045 29.9452 322.535 26.2498L325.599 21.676H327.194L322.13 29.2161L316.12 38.115" fill="#D61116"/>
<path d="M104.064 21.2617C105.862 21.2617 107.052 22.0903 107.052 23.1426C107.052 25.272 101.988 29.2741 96.3242 27.9484C95.8453 28.831 95.5742 29.8078 95.5308 30.807C95.5308 31.9256 95.8178 32.4144 96.9572 32.4144C100.941 32.4144 106.022 29.3404 111.011 22.9437H111.466C105.929 29.821 100.941 32.8867 96.7546 32.8867C94.5517 32.8867 93.9355 31.9173 93.9355 30.3595C93.9355 26.6724 99.9367 21.2617 104.064 21.2617ZM105.457 23.1426C105.487 22.9446 105.47 22.7426 105.407 22.5521C105.345 22.3616 105.238 22.1878 105.096 22.0443C104.954 21.9008 104.78 21.7914 104.588 21.7247C104.396 21.6579 104.191 21.6356 103.988 21.6594C101.456 21.6594 98.0798 24.6258 96.3917 27.6749C101.54 28.8018 105.457 24.7418 105.457 23.1426Z" fill="#D61116"/>
<path d="M220.93 21.2617C222.728 21.2617 223.909 22.0903 223.909 23.1426C223.909 25.272 218.845 29.2741 213.182 27.9484C212.703 28.831 212.432 29.8078 212.388 30.807C212.388 31.9256 212.675 32.4144 213.823 32.4144C217.807 32.4144 223.563 29.3404 228.552 22.9437H229.007C223.47 29.821 217.807 32.8867 213.621 32.8867C211.409 32.8867 210.793 31.9173 210.793 30.3595C210.793 26.6724 216.803 21.2617 220.93 21.2617ZM222.323 23.1426C222.351 22.9442 222.333 22.742 222.269 22.5516C222.206 22.3612 222.098 22.1876 221.956 22.0443C221.813 21.9011 221.639 21.7918 221.446 21.7251C221.254 21.6584 221.048 21.6359 220.846 21.6594C218.356 21.6594 214.937 24.6258 213.291 27.6749C218.406 28.8018 222.323 24.7418 222.323 23.1426Z" fill="#D61116"/>
<path d="M254.36 25.7443C249.617 30.7158 244.78 32.895 241.193 32.895C238.99 32.895 238.374 31.9255 238.374 30.3678C238.374 26.6723 244.384 21.2534 248.503 21.2534C250.3 21.2534 251.482 22.082 251.482 23.1343C251.482 25.2638 246.418 29.2658 240.754 27.9401C240.275 28.8227 240.004 29.7995 239.961 30.7987C239.961 31.9173 240.248 32.4061 241.387 32.4061C244.763 32.4061 249.49 30.1607 253.904 25.5206L254.36 25.7443ZM249.895 23.1426C249.925 22.9446 249.908 22.7425 249.846 22.552C249.783 22.3616 249.677 22.1878 249.535 22.0443C249.393 21.9008 249.219 21.7914 249.026 21.7246C248.834 21.6579 248.629 21.6356 248.427 21.6594C245.937 21.6594 242.518 24.6257 240.872 27.6749C245.987 28.8018 249.895 24.7417 249.895 23.1426Z" fill="#D61116"/>
<path d="M147.001 57.1726H144.621V63.1799H145.178V60.6941H146.959C148.647 60.6941 149.255 59.7412 149.255 58.9541C149.231 58.69 149.153 58.4333 149.026 58.1995C148.898 57.9656 148.724 57.7594 148.514 57.5931C148.303 57.4267 148.061 57.3038 147.801 57.2316C147.541 57.1593 147.269 57.1393 147.001 57.1726ZM148.689 58.9292C148.689 59.6667 148.175 60.2053 146.951 60.2053H145.178V57.6781H146.993C148.25 57.6781 148.689 58.4652 148.689 58.9624V58.9292Z" fill="#312714"/>
<path d="M157.922 57.0566H157.077L154.106 63.3207H154.664L155.508 61.5724H159.483L160.327 63.3207H160.952L157.922 57.0566ZM159.272 61.1415H155.651L157.339 57.5041H157.609L159.272 61.1415Z" fill="#312714"/>
<path d="M189.996 59.8323C188.933 59.4926 188.165 59.2854 188.165 58.4569C188.165 57.8023 188.798 57.446 189.608 57.4543C190.093 57.469 190.559 57.6409 190.933 57.9431L191.195 57.6117C190.761 57.2282 190.2 57.0131 189.617 57.0068C188.325 57.0068 187.642 57.6946 187.642 58.4651C187.642 59.5671 188.621 59.8737 189.777 60.2383C190.689 60.52 191.575 60.8514 191.575 61.6635C191.575 62.3512 190.925 62.8483 189.802 62.84C189.097 62.8464 188.417 62.5852 187.903 62.1109L187.667 62.434C187.943 62.7026 188.272 62.9142 188.633 63.0565C188.994 63.1988 189.38 63.2688 189.769 63.2626C191.381 63.2626 192.031 62.5086 192.031 61.6635C192.031 60.636 191.263 60.2383 189.996 59.8323Z" fill="#312714"/>
<path d="M325.068 24.5927L320.24 31.9422C315.252 39.8469 308.213 50.3616 297.67 50.3616C292.733 50.3616 289.669 48.3564 289.669 44.9924C289.669 40.7417 294.404 38.3637 296.936 37.4854L297.021 37.734C294.649 38.5626 290.808 40.9406 290.808 44.9924C290.808 48.0415 292.935 49.9639 297.561 49.9639C307.731 49.9639 314.197 39.1923 318.974 31.5031L323.827 24.2861" fill="#D61116"/>
<path d="M108.94 42.4319H110.873V42.6722H109.185V45.5722H110.747V45.8125H109.219V48.8202H108.94V42.4319Z" fill="#312714"/>
<path d="M115.989 45.7379C115.989 45.0824 116.187 44.4416 116.558 43.8966C116.929 43.3515 117.457 42.9267 118.073 42.6759C118.69 42.425 119.369 42.3594 120.024 42.4873C120.679 42.6152 121.281 42.9308 121.753 43.3943C122.225 43.8578 122.546 44.4484 122.677 45.0913C122.807 45.7342 122.74 46.4006 122.485 47.0062C122.229 47.6119 121.796 48.1295 121.241 48.4937C120.686 48.8579 120.033 49.0522 119.365 49.0522C118.917 49.071 118.469 48.9981 118.051 48.8382C117.633 48.6783 117.253 48.4348 116.936 48.1232C116.618 47.8116 116.37 47.4387 116.207 47.0281C116.044 46.6175 115.97 46.1782 115.989 45.7379ZM119.365 48.7954C119.986 48.8102 120.598 48.6429 121.122 48.3148C121.645 47.9867 122.057 47.5127 122.305 46.9535C122.553 46.3943 122.625 45.7752 122.513 45.1755C122.4 44.5757 122.108 44.0225 121.674 43.5866C121.239 43.1507 120.682 42.8519 120.074 42.7283C119.466 42.6048 118.834 42.6622 118.259 42.8932C117.684 43.1241 117.192 43.5182 116.846 44.0249C116.501 44.5317 116.317 45.1281 116.318 45.7379C116.299 46.1361 116.362 46.5341 116.506 46.9072C116.649 47.2802 116.868 47.6206 117.151 47.9071C117.433 48.1936 117.772 48.4203 118.147 48.5731C118.523 48.7258 118.926 48.8015 119.332 48.7954H119.365Z" fill="#312714"/>
<path d="M128.202 43.2025V48.8202H127.924V42.4319H128.202L130.245 48.058V42.4319H130.523V48.8202H130.245L128.202 43.2025Z" fill="#312714"/>
<path d="M136.676 42.4319C138.981 42.4319 140.424 43.7825 140.424 45.7462C140.424 47.4034 139.217 48.8368 136.676 48.8368H136.381V42.4319H136.676ZM140.12 45.7462C140.12 43.9399 138.82 42.6805 136.676 42.6887V48.5882C139.048 48.5717 140.112 47.2708 140.112 45.7296L140.12 45.7462Z" fill="#312714"/>
<path d="M145.954 42.4319H147.887V42.6722H146.198V45.5722H147.76V45.8125H146.198V48.58H147.946V48.8202H145.92L145.954 42.4319Z" fill="#312714"/>
<path d="M153.229 42.4319H155.162V42.6722H153.474V45.5722H155.035V45.8125H153.474V48.58H155.221V48.8202H153.195L153.229 42.4319Z" fill="#312714"/>
<path d="M170.726 42.4319H172.65V42.6722H170.962V45.5722H172.515V45.8125H171.004V48.58H172.743V48.8202H170.726V42.4319Z" fill="#312714"/>
<path d="M178.271 43.2025V48.8202H177.992V42.4319H178.271L180.322 48.058V42.4319H180.626V48.8202H180.347L178.271 43.2025Z" fill="#312714"/>
<path d="M197.567 42.4319V48.8202H197.263V42.8627L196.638 43.6333L196.41 43.4842L197.254 42.4319H197.567Z" fill="#312714"/>
<path d="M203.044 47.1051C203.031 46.7677 203.124 46.4345 203.31 46.1502C203.495 45.8659 203.765 45.644 204.082 45.5142C203.792 45.3904 203.548 45.1831 203.38 44.9197C203.213 44.6564 203.131 44.3494 203.145 44.0393C203.145 43.613 203.318 43.2042 203.625 42.9027C203.932 42.6012 204.349 42.4319 204.783 42.4319C205.217 42.4319 205.634 42.6012 205.941 42.9027C206.248 43.2042 206.42 43.613 206.42 44.0393C206.435 44.3505 206.352 44.6587 206.183 44.9224C206.014 45.1861 205.767 45.3926 205.475 45.5142C205.768 45.6342 206.023 45.8301 206.212 46.081C206.401 46.3319 206.516 46.6284 206.547 46.9388C206.578 47.2493 206.522 47.5622 206.386 47.844C206.25 48.1258 206.038 48.366 205.774 48.5391C205.509 48.7121 205.202 48.8115 204.884 48.8265C204.567 48.8416 204.251 48.7718 203.971 48.6246C203.691 48.4774 203.457 48.2583 203.294 47.9907C203.13 47.7231 203.044 47.417 203.044 47.1051ZM204.783 48.5551C205.076 48.5617 205.365 48.4823 205.612 48.327C205.86 48.1717 206.054 47.9476 206.171 47.6833C206.288 47.419 206.322 47.1265 206.269 46.8431C206.216 46.5596 206.078 46.2982 205.873 46.0921C205.668 45.8859 205.405 45.7445 205.117 45.6858C204.83 45.6271 204.531 45.6539 204.259 45.7626C203.988 45.8713 203.755 46.057 203.591 46.2962C203.427 46.5353 203.34 46.8169 203.34 47.1051C203.33 47.2951 203.361 47.485 203.43 47.6629C203.498 47.8408 203.604 48.0028 203.739 48.1389C203.875 48.275 204.037 48.3822 204.217 48.4538C204.396 48.5254 204.589 48.5599 204.783 48.5551ZM204.783 45.3899C205.058 45.3965 205.329 45.3224 205.561 45.1772C205.793 45.0319 205.976 44.8221 206.086 44.5744C206.195 44.3268 206.228 44.0526 206.178 43.7868C206.129 43.5211 206 43.2759 205.807 43.0825C205.615 42.8891 205.369 42.7564 205.099 42.7012C204.83 42.646 204.55 42.6709 204.295 42.7728C204.04 42.8746 203.822 43.0486 203.668 43.2728C203.515 43.4969 203.432 43.7609 203.432 44.031C203.422 44.2094 203.449 44.388 203.513 44.5554C203.576 44.7228 203.675 44.8753 203.802 45.0032C203.929 45.1311 204.082 45.2316 204.251 45.2981C204.42 45.3647 204.601 45.396 204.783 45.3899Z" fill="#312714"/>
<path d="M211.771 45.7379C211.771 45.0824 211.97 44.4416 212.34 43.8966C212.711 43.3515 213.239 42.9267 213.856 42.6759C214.473 42.425 215.151 42.3594 215.806 42.4873C216.461 42.6152 217.063 42.9308 217.535 43.3943C218.007 43.8578 218.329 44.4484 218.459 45.0913C218.589 45.7342 218.522 46.4006 218.267 47.0062C218.011 47.6119 217.579 48.1295 217.023 48.4937C216.468 48.8579 215.815 49.0522 215.148 49.0522C214.699 49.071 214.252 48.9981 213.833 48.8382C213.415 48.6783 213.035 48.4348 212.718 48.1232C212.4 47.8116 212.152 47.4387 211.99 47.0281C211.827 46.6175 211.752 46.1782 211.771 45.7379ZM215.148 48.7954C215.769 48.8102 216.38 48.6429 216.904 48.3148C217.427 47.9867 217.84 47.5127 218.087 46.9535C218.335 46.3943 218.407 45.7752 218.295 45.1755C218.183 44.5757 217.89 44.0225 217.456 43.5866C217.022 43.1507 216.465 42.8519 215.856 42.7283C215.248 42.6048 214.616 42.6622 214.041 42.8932C213.466 43.1241 212.974 43.5182 212.629 44.0249C212.283 44.5317 212.099 45.1281 212.101 45.7379C212.081 46.1361 212.145 46.5341 212.288 46.9072C212.431 47.2802 212.651 47.6206 212.933 47.9071C213.215 48.1936 213.555 48.4203 213.93 48.5731C214.305 48.7258 214.708 48.8015 215.114 48.7954H215.148Z" fill="#312714"/>
<path d="M225.03 44.023C225.044 43.844 225.018 43.6642 224.955 43.4958C224.892 43.3274 224.792 43.1743 224.663 43.0469C224.534 42.9196 224.379 42.821 224.208 42.7578C224.037 42.6946 223.854 42.6683 223.671 42.6807V42.4322C223.892 42.4144 224.113 42.4428 224.322 42.5155C224.53 42.5883 224.721 42.7037 224.88 42.8541C225.04 43.0045 225.165 43.1865 225.248 43.388C225.33 43.5896 225.368 43.806 225.359 44.023C225.354 44.3263 225.269 44.6231 225.112 44.8844C224.955 45.1458 224.732 45.3629 224.465 45.5145C224.809 45.6408 225.105 45.8672 225.315 46.1632C225.524 46.4593 225.637 46.8111 225.638 47.1716C225.638 48.1411 224.988 48.8288 223.511 48.8288V48.5802C224.768 48.5802 225.342 48.0997 225.342 47.1882C225.348 46.9945 225.315 46.8016 225.244 46.6206C225.174 46.4395 225.068 46.2738 224.932 46.133C224.797 45.9922 224.634 45.879 224.454 45.7999C224.274 45.7208 224.079 45.6773 223.882 45.6719V45.4233C224.215 45.3689 224.516 45.1961 224.728 44.9379C224.939 44.6796 225.047 44.354 225.03 44.023Z" fill="#312714"/>
<path d="M146.35 41.0987L147.642 40.0872L147.769 40.2447L146.476 41.2562L146.35 41.0987Z" fill="#312714"/>
<path d="M169.813 57.1726H167.425V63.1798H167.965V60.6941H169.746C171.434 60.6941 172.042 59.7412 172.042 58.9541C172.018 58.6923 171.94 58.4379 171.815 58.2059C171.689 57.9738 171.517 57.7688 171.31 57.6028C171.102 57.4369 170.863 57.3133 170.606 57.2394C170.349 57.1655 170.079 57.1428 169.813 57.1726ZM171.502 58.9292C171.502 59.6666 170.987 60.2052 169.763 60.2052H167.965V57.6781H169.78C171.063 57.6781 171.502 58.4652 171.502 58.9624V58.9292Z" fill="#312714"/>
<path d="M169.849 60.6194L171.714 63.2129H172.305L170.389 60.5034L169.849 60.6194Z" fill="#312714"/>
<path d="M180.345 57.2058H179.831V63.213H180.345V57.2058Z" fill="#312714"/>
</svg>
