<svg width="550" height="103" viewBox="0 0 550 103" fill="none" xmlns="http://www.w3.org/2000/svg">
<g clip-path="url(#clip0_8_16)">
<path d="M39.4452 0.63623C49.2426 0.63623 53.4934 6.79639 53.4934 12.1882C53.4934 21.3556 41.348 31.7417 30.6196 31.7417C24.4795 31.7417 20.6335 28.4695 20.6335 23.091C20.6335 15.1424 29.5131 8.14765 37.6774 8.14765C42.711 8.14765 46.2331 10.7044 46.2331 14.2946C46.2331 18.4675 41.4695 22.773 36.8948 22.773C34.8705 22.773 33.494 21.9384 33.494 20.5872C33.494 18.6662 36.0445 16.2287 44.0875 16.0301C44.2139 15.4823 44.2772 14.9224 44.2764 14.3608C44.2764 10.9032 41.8608 8.78354 37.6774 8.78354C30.2957 8.78354 22.5901 15.4074 22.5901 22.9585C22.5901 27.9662 25.9234 31.1058 31.146 31.1058C40.4843 31.1058 50.808 21.1966 50.808 12.122C50.808 6.79639 47.2317 1.32511 38.9864 1.32511C23.8316 1.32511 5.1413 19.1697 5.1413 37.266C5.1413 46.6851 10.1749 51.9444 19.1219 51.9444C26.895 51.9444 38.7301 45.1086 49.445 27.6615L50.0252 27.794C39.5802 45.1086 27.4888 52.5936 18.8925 52.5936C8.44755 52.5936 2.56378 47.1355 2.56378 37.3191C2.53679 19.0504 22.7925 0.63623 39.4452 0.63623ZM36.8948 22.1239C38.5408 21.9896 40.1055 21.3641 41.3792 20.3317C42.6527 19.2994 43.5742 17.9092 44.02 16.3479C38.7975 16.4805 34.803 17.898 34.803 20.3885C34.803 21.488 35.5318 22.1239 36.8948 22.1239Z" fill="#D61116"/>
<path d="M61.1992 24.0318C68.7158 12.5063 77.8653 4.49146 90.6045 4.49146C98.4989 4.49146 103.398 7.69738 103.398 13.0892C103.398 19.8852 95.8269 23.6872 91.7785 25.012L91.6436 24.6278C95.4357 23.3032 101.576 19.4877 101.576 13.0229C101.576 8.1478 98.1752 5.07434 90.7799 5.07434C74.5861 5.07434 66.0844 19.8985 61.4556 27.0125L47.0971 50.4742C39.1351 63.1123 29.6886 77.4198 12.8066 77.4198C4.89863 77.4198 0 74.1875 0 68.8883C0 62.0923 7.11179 57.6411 11.6326 56.8992L11.754 57.2834C9.00364 57.8261 6.52274 59.2702 4.7181 61.3787C2.91348 63.4873 1.89222 66.1352 1.82181 68.8883C1.82181 73.7635 5.22251 76.8369 12.6177 76.8369C28.8924 76.8369 37.4483 62.1585 45.0864 49.8381L59.2289 27.1582L61.1992 24.0318ZM64.519 27.8338C56.422 28.9732 52.8459 28.7082 52.0092 24.7206C51.4063 25.7889 50.7441 26.8237 50.0254 27.8206L49.4452 27.6882L53.6555 21.0643H54.2764C53.0617 28.6288 58.8645 27.6882 64.519 27.0654C74.1678 26.0057 79.2958 27.3172 79.2958 27.3172L78.7156 27.9133C78.7156 27.9133 73.8709 26.4958 64.519 27.8206V27.8338Z" fill="#D61116"/>
<path d="M73.4125 24.0319C80.9696 12.5065 90.0786 4.49164 102.818 4.49164C110.726 4.49164 115.625 7.69756 115.625 13.0894C115.625 19.8854 108.04 23.6875 103.992 25.0122L103.857 24.6281C107.649 23.3033 113.789 19.488 113.789 13.0231C113.789 8.14799 110.389 5.07453 102.993 5.07453C86.7994 5.07453 78.2976 19.8986 73.6554 27.0126L59.2969 50.4743C51.2809 63.1125 41.8345 77.42 25.0064 77.42C17.0984 77.42 12.1458 74.1876 12.1458 68.8886C12.1458 62.0924 19.3115 57.4029 25.7891 57.6942V58.1049C20.3912 57.9194 13.9946 62.4104 13.9946 68.8886C13.9946 73.7636 17.3953 76.8371 24.7906 76.8371C41.0519 76.8371 49.621 62.1588 57.2591 49.8384L73.4125 24.0319Z" fill="#D61116"/>
<path d="M69.2025 47.838L78.163 34.5904H80.5112L71.2942 48.3548C70.7593 48.9743 70.4214 49.7342 70.3226 50.5405C70.3092 50.6897 70.3281 50.8398 70.3779 50.9812C70.428 51.1225 70.5078 51.2519 70.6123 51.3607C70.7169 51.4696 70.8437 51.5555 70.9845 51.6127C71.1252 51.6701 71.2768 51.6975 71.4292 51.6931C73.6557 51.6931 77.3129 49.441 88.9724 39.1212L89.4313 39.5716C80.7 47.3347 74.8974 52.5939 70.6464 52.5939C69.1484 52.5939 67.9474 51.8257 67.9474 50.5405C68.1033 49.5432 68.5377 48.6077 69.2025 47.838ZM80.3088 28.152C80.3088 27.7958 80.4164 27.4474 80.618 27.1512C80.8198 26.8549 81.1063 26.6239 81.4417 26.4875C81.777 26.3511 82.146 26.3154 82.5021 26.385C82.8581 26.4545 83.1851 26.6261 83.4419 26.8781C83.6985 27.13 83.8732 27.4511 83.9441 27.8006C84.0149 28.1501 83.9786 28.5124 83.8397 28.8416C83.7007 29.1708 83.4655 29.4522 83.1637 29.6501C82.8618 29.8481 82.507 29.9538 82.1441 29.9538C81.9025 29.9555 81.663 29.9101 81.4396 29.8203C81.2161 29.7302 81.0131 29.5977 80.8423 29.43C80.6716 29.2623 80.5365 29.063 80.4449 28.8437C80.3532 28.6242 80.307 28.3891 80.3088 28.152Z" fill="#D61116"/>
<path d="M90.8619 52.5939C87.2047 52.5939 84.9242 50.408 84.9242 47.2947C84.9242 40.7503 93.21 34.0471 101.118 34.0471C103.992 34.0471 106.165 35.3719 106.165 37.2796C106.165 38.6042 105.585 39.3992 104.816 39.3992C104.046 39.3992 103.331 38.538 103.331 37.0543C103.377 36.7371 103.348 36.4138 103.246 36.1094C103.144 35.805 102.973 35.5274 102.744 35.2983C102.516 35.0694 102.238 34.8946 101.93 34.788C101.622 34.6813 101.294 34.6453 100.97 34.6829C94.3165 34.6829 87.4748 41.4791 87.4748 48.0233C87.4748 50.4609 88.5948 51.9977 91.1993 51.9977C95.4501 51.9977 101.132 49.2421 118.378 34.6829L118.972 35.0671C101.509 49.5072 95.5716 52.5939 90.8619 52.5939Z" fill="#D61116"/>
<path d="M109.415 47.838L118.362 34.5904H120.71L111.507 48.3548C110.969 48.9743 110.627 49.7336 110.521 50.5405C110.508 50.6907 110.527 50.8421 110.578 50.9844C110.628 51.1267 110.71 51.2567 110.816 51.3657C110.922 51.4749 111.05 51.5604 111.193 51.6169C111.335 51.6733 111.488 51.6994 111.642 51.6931C114.179 51.6931 118.497 48.8052 134.299 34.6302L134.826 35.0142C123.139 45.1488 115.879 52.5939 110.845 52.5939C109.347 52.5939 108.146 51.8255 108.146 50.5405C108.298 49.5394 108.738 48.6015 109.415 47.838ZM120.521 28.152C120.521 27.7952 120.629 27.4463 120.831 27.1497C121.034 26.8531 121.321 26.6223 121.657 26.4862C121.993 26.3503 122.363 26.3154 122.72 26.386C123.076 26.4566 123.403 26.6295 123.659 26.8829C123.915 27.1361 124.089 27.4583 124.158 27.8088C124.227 28.1591 124.189 28.5217 124.048 28.8507C123.907 29.1798 123.67 29.4602 123.366 29.6565C123.063 29.8529 122.706 29.9563 122.343 29.9538C122.103 29.9538 121.864 29.9071 121.643 29.8163C121.421 29.7256 121.219 29.5927 121.05 29.4252C120.881 29.2578 120.747 29.0591 120.656 28.8405C120.565 28.6219 120.519 28.388 120.521 28.152Z" fill="#D61116"/>
<path d="M138.823 52.5938C137.311 52.5938 136.124 51.8784 136.124 50.4078C136.195 49.4764 136.537 48.5845 137.109 47.8379L143.438 38.485C143.993 37.7796 144.335 36.9348 144.423 36.0474C144.423 35.279 144.032 34.7226 142.723 34.7226C139.592 34.7226 130.578 43.996 126.529 49.984L125.18 51.9048H122.804L134.369 34.5902H136.907L131.252 43.0554C136.326 37.6504 140.699 33.994 143.398 33.994C145.489 33.994 146.663 34.895 146.663 36.2991C146.534 37.3372 146.103 38.317 145.422 39.1208L139.228 48.3943C138.679 49.0063 138.335 49.7696 138.242 50.5802C138.242 51.2822 138.701 51.7326 139.592 51.7326C141.684 51.7326 144.882 49.8647 154.436 41.5982L154.949 41.9824C147.635 48.3545 142.601 52.5938 138.823 52.5938Z" fill="#D61116"/>
<path d="M188.928 47.692C188.928 44.9364 190.493 42.3001 192.383 39.6108L203.032 24.3496C206.755 18.9577 208.266 15.9506 208.266 12.9301C208.199 9.27373 206.472 0.636254 192.383 0.636254C174.152 0.636254 162.695 14.6258 162.695 22.389C162.695 25.9128 164.922 28.7346 170.468 28.7346C179.549 28.7346 187.269 21.4218 187.269 16.0301C187.269 13.7249 185.919 12.122 183.086 12.122C177.337 12.122 172.492 18.0171 170.143 20.9053H169.685L169.429 20.7198C171.656 18.0702 176.622 11.4463 183.153 11.4463C186.81 11.4463 189.36 13.4467 189.36 16.1361C189.36 21.4351 180.279 29.3837 170.211 29.3837C164.071 29.3837 160.212 26.4294 160.212 21.6868C160.172 12.5062 173.571 0.000366211 191.992 0.000366211C207.673 0.000366211 210.413 8.84981 210.413 13.0228C210.413 15.9638 209.062 19.1168 205.446 24.4291C203.032 27.9 198.699 34.1793 194.273 40.5382C192.383 43.2938 191.143 45.7314 191.143 47.7184C191.107 48.1931 191.175 48.6697 191.342 49.1164C191.509 49.5633 191.771 49.97 192.11 50.3096C192.45 50.6492 192.86 50.914 193.312 51.0862C193.763 51.2585 194.248 51.3343 194.732 51.3086C199.968 51.3086 209.576 42.9096 213.422 38.4186L234.581 7.04813H237.2L209.238 48.553C208.677 49.2175 208.297 50.0105 208.132 50.8582C208.132 51.3748 208.591 51.6928 209.238 51.6928C212.234 51.6928 222.112 42.9096 231.654 34.6298L230.479 36.4845C224.015 42.075 212.761 52.5936 208.456 52.5936C206.958 52.5936 205.905 51.8252 205.905 50.5402C206.007 49.5708 206.391 48.6508 207.013 47.8906L210.939 42.0617C203.3 49.2419 198.2 52.5803 193.949 52.5803C193.279 52.6337 192.606 52.5442 191.976 52.3179C191.344 52.0917 190.77 51.7342 190.294 51.2697C189.817 50.8053 189.448 50.245 189.213 49.6276C188.976 49.0099 188.88 48.3496 188.928 47.692Z" fill="#D61116"/>
<path d="M236.943 51.6664C239.493 51.6664 243.799 48.7785 259.614 34.6035L260.128 34.9877H260.195C248.44 45.1486 241.194 52.5938 236.161 52.5938C234.649 52.5938 233.461 51.8784 233.461 50.4078C233.533 49.4764 233.875 48.5845 234.447 47.8379L240.79 38.485C241.335 37.7759 241.672 36.9324 241.76 36.0474C241.76 35.279 241.37 34.7226 240.061 34.7226C236.93 34.7226 228.631 42.923 224.649 48.8845L222.665 51.9446H220.115L231.68 34.6299H234.231L229.412 41.7572C234.393 36.7231 237.928 33.994 240.681 33.994C242.772 33.994 243.947 34.895 243.947 36.2991C243.811 37.3354 243.381 38.3134 242.705 39.1208L236.498 48.3943C235.948 49.0063 235.605 49.7696 235.512 50.5802C235.566 51.2424 236.025 51.6664 236.943 51.6664Z" fill="#D61116"/>
<path d="M250.656 47.838L259.616 34.5904H261.965L252.747 48.3548C252.212 48.9743 251.874 49.7342 251.775 50.5405C251.763 50.6897 251.782 50.8398 251.831 50.9812C251.881 51.1225 251.961 51.2519 252.066 51.3607C252.17 51.4696 252.297 51.5555 252.437 51.6127C252.578 51.6701 252.73 51.6975 252.882 51.6931C255.433 51.6931 259.738 48.8052 275.553 34.6302L276.081 35.0144C264.326 45.1488 257.079 52.5939 252.046 52.5939C250.547 52.5939 249.347 51.8257 249.347 50.5405C249.518 49.5376 249.972 48.6016 250.656 47.838ZM261.803 28.152C261.803 27.7958 261.91 27.4474 262.112 27.1512C262.313 26.8549 262.599 26.6239 262.935 26.4875C263.271 26.3511 263.64 26.3154 263.995 26.385C264.352 26.4545 264.68 26.6261 264.935 26.8781C265.193 27.13 265.367 27.4511 265.437 27.8006C265.509 28.1501 265.473 28.5124 265.333 28.8416C265.194 29.1708 264.959 29.4522 264.657 29.6501C264.355 29.8481 264.002 29.9538 263.637 29.9538C263.396 29.9555 263.157 29.9101 262.934 29.8203C262.71 29.7302 262.507 29.5977 262.336 29.43C262.165 29.2623 262.03 29.063 261.939 28.8437C261.846 28.6242 261.8 28.3891 261.803 28.152Z" fill="#D61116"/>
<path d="M266.01 49.9576C266.093 48.8323 266.526 47.7593 267.25 46.8841L275.55 34.63H277.993L269.046 47.8776C268.453 48.6179 268.087 49.5099 267.994 50.4478C267.994 51.2824 268.587 51.7726 269.693 51.7726C272.568 51.7726 276.225 48.8182 282.825 41.1744C281.715 39.95 281.071 38.3868 281.002 36.7497C281.002 34.9613 281.92 33.8618 282.892 33.8618C283.864 33.8618 284.916 35.4646 284.916 37.2663C284.932 38.6814 284.508 40.0676 283.701 41.2407C284.636 42.4477 285.95 43.3184 287.439 43.7179L287.17 44.1287C285.599 43.7095 284.222 42.7743 283.269 41.4791C275.361 50.7525 272.042 52.3819 269.167 52.3819C266.995 52.4613 266.01 51.3751 266.01 49.9576Z" fill="#D61116"/>
<path d="M301.681 33.994C304.556 33.994 306.459 35.3188 306.459 37.0013C306.459 40.4058 298.362 46.8045 289.306 44.685C288.541 46.0961 288.107 47.6578 288.039 49.2554C288.039 51.0439 288.483 51.8254 290.318 51.8254C296.688 51.8254 304.812 46.9105 312.789 36.6833H313.516C304.663 47.6789 296.688 52.5805 289.996 52.5805C286.459 52.5805 285.488 51.0306 285.488 48.5399C285.488 42.6448 295.083 33.994 301.681 33.994ZM303.909 37.0013C303.957 36.6847 303.929 36.3617 303.829 36.0572C303.73 35.7526 303.558 35.4747 303.331 35.2453C303.104 35.0158 302.826 34.8409 302.519 34.7343C302.212 34.6275 301.884 34.5918 301.56 34.6299C297.512 34.6299 292.114 39.3727 289.415 44.2477C297.646 46.0494 303.909 39.5581 303.909 37.0013Z" fill="#D61116"/>
<path d="M335.201 34.6298L335.727 35.014C324.027 45.1484 316.781 52.5937 311.733 52.5937C310.235 52.5937 309.034 51.8253 309.034 50.5403C309.196 49.563 309.624 48.647 310.277 47.8907L318.575 35.6499C317.2 36.5406 315.594 37.0278 313.946 37.0541C312.597 37.0541 310.262 36.299 310.262 34.2854C310.262 29.9137 315.526 25.7672 318.009 25.7672C319.358 25.7672 320.006 26.403 319.938 27.4894C319.938 29.4765 317.051 33.0136 313.705 36.4977C315.323 36.8554 318.021 35.597 319.102 34.6829H321.625L312.395 48.3544C311.86 48.974 311.522 49.734 311.423 50.5403C311.41 50.6893 311.428 50.8395 311.479 50.9808C311.529 51.1222 311.609 51.2515 311.712 51.3604C311.818 51.4693 311.944 51.5551 312.085 51.6125C312.226 51.6698 312.378 51.6971 312.529 51.6928C315.08 51.6664 319.385 48.8048 335.201 34.6298ZM313.219 36.2461C316.511 32.8017 319.061 29.4897 319.251 27.6351C319.318 26.7343 318.954 26.3103 318.036 26.3103C315.459 26.3634 310.195 34.6166 313.219 36.2461Z" fill="#D61116"/>
<path d="M325.01 49.0166C325.523 51.4542 326.575 52.5538 328.208 52.5538C329.639 52.5538 332.972 51.4011 332.972 44.3402C332.972 42.353 332.784 40.4984 332.648 38.9483C332.513 37.7297 332.499 37.4911 332.499 37.3056C332.499 33.4241 335.199 30.1783 337.291 30.1783C338.531 30.1783 338.154 33.3181 335.778 35.0402L334.875 35.3583V35.557C334.72 36.6645 334.72 37.7878 334.875 38.8954C334.996 40.4984 335.131 42.353 335.131 44.3402C335.131 51.7854 330.03 53.0571 328.384 53.0571C326.292 53.0571 324.997 51.7324 324.47 49.0828L325.01 49.0166Z" fill="#D61116"/>
<path d="M356.696 50.474C356.86 49.3665 357.327 48.3232 358.045 47.4535L371.837 26.9329C379.812 14.3078 389.285 0.000366211 406.194 0.000366211C414.102 0.000366211 419.001 3.2063 419.001 8.59809C419.001 15.3941 411.43 19.1963 407.368 20.521L407.246 20.1368C411.039 18.8121 417.18 15.01 417.18 8.53185C417.18 3.65672 413.779 0.583264 406.383 0.583264C390.001 0.636254 381.444 15.3279 373.806 27.6349L360.218 47.8377C359.594 48.6033 359.188 49.5176 359.043 50.4873C359.043 51.3748 359.569 51.6397 360.541 51.6397C363.74 51.6397 368.449 48.0497 372.107 44.0091L372.7 44.3933C368.908 48.553 364.468 52.5406 360.028 52.5406C357.869 52.5936 356.696 51.8252 356.696 50.474Z" fill="#D61116"/>
<path d="M383.417 44.0624L383.998 44.4464C380.207 48.6063 375.767 52.5938 371.327 52.5938C369.167 52.5938 367.993 51.8254 367.993 50.4742C368.161 49.3673 368.626 48.3246 369.343 47.4537L395.281 9.16797H397.372L371.515 47.8379C370.892 48.6036 370.487 49.5178 370.342 50.4875C370.342 51.375 370.868 51.6399 371.853 51.6399C375.05 51.6665 379.748 48.1028 383.417 44.0624Z" fill="#D61116"/>
<path d="M500.77 8.59799C500.77 3.72284 497.369 0.649387 489.975 0.649387C484.435 0.647182 479.056 2.47131 474.698 5.82922C476.34 7.88206 477.237 10.4132 477.25 13.0227C477.25 18.0833 473.2 23.9255 467.802 26.1643C468.961 27.0192 469.89 28.1373 470.511 29.4228C471.131 30.7081 471.425 32.1221 471.366 33.5433C471.366 42.9094 459.503 52.5934 448.276 52.5934C443.823 52.5934 440.691 51.1097 438.83 48.937C435.547 50.7076 431.859 51.6199 428.114 51.5866C420.544 51.5866 416.563 48.129 416.563 41.5846H417.277C417.277 46.8837 420.341 50.9508 428.074 50.9508C431.672 50.9645 435.202 49.9868 438.262 48.129C437.287 46.659 436.766 44.9424 436.764 43.1876C436.764 36.5638 444.079 29.7147 451.393 29.7147C452.162 29.7008 452.93 29.7899 453.673 29.9796L455.645 26.8931C460.408 19.3287 465.698 11.115 472.755 5.78948C470.664 2.96773 466.683 0.596397 459.261 0.596397C441.03 0.596397 429.572 14.5859 429.572 22.349C429.572 25.8729 431.798 28.6947 437.344 28.6947C446.427 28.6947 454.132 21.382 454.132 15.9901C454.132 13.6851 452.783 12.0821 449.95 12.0821C444.2 12.0821 439.368 17.9773 437.021 20.8653H436.562L436.305 20.6798H436.238C438.451 18.0302 443.417 11.4065 449.95 11.4065C453.619 11.4065 456.156 13.3936 456.156 16.0829C456.156 21.382 447.075 29.3305 437.021 29.3305C430.88 29.3305 427.021 26.3763 427.021 21.6337C427.008 12.506 440.408 0.000251588 458.828 0.000251588C466.737 0.000251588 471.297 2.23911 473.983 5.00786C478.574 1.73012 484.11 -0.0241712 489.786 0.000251588C497.694 0.000251588 502.593 3.20618 502.593 8.59799C502.593 15.394 495.022 19.1961 490.974 20.5209L490.838 20.1367C494.631 18.9179 500.77 15.0761 500.77 8.59799ZM439.559 47.2679C444.577 43.6778 448.762 37.7031 453.336 30.5891C452.692 30.4618 452.036 30.3997 451.379 30.4036C444.713 30.4036 438.572 37.0275 438.572 43.1611C438.555 44.5885 438.892 45.9987 439.559 47.2679ZM448.37 51.9443C458.694 51.9443 468.923 41.0415 468.923 32.7087C469 31.5876 468.819 30.4638 468.394 29.4204C467.968 28.3771 467.31 27.4408 466.467 26.6811C465.369 27.0127 464.229 27.1866 463.079 27.1977C461.501 27.1977 459.867 26.8135 459.867 25.8729C459.867 24.9324 461.217 24.4024 462.945 24.4024C464.422 24.4158 465.861 24.8785 467.06 25.7272C469.439 24.486 471.433 22.6392 472.834 20.3804C474.236 18.1217 474.991 15.5345 475.023 12.8902C475.045 10.7814 474.505 8.70343 473.457 6.86255C466.926 12.2543 462.094 20.3355 457.587 27.6349L455.685 30.6553C456.759 31.0932 457.682 31.8261 458.342 32.7659C459.002 33.7059 459.373 34.8129 459.408 35.9543C459.408 40.6308 453.269 42.8167 452.095 43.2009L451.959 42.8167C453.539 42.3 458.113 40.1671 458.113 35.9543C458.115 34.9899 457.848 34.0434 457.341 33.2171C456.834 32.3907 456.107 31.7157 455.238 31.2648C450.461 38.5774 445.793 44.6052 440.138 48.1423C441.086 49.3916 442.333 50.3923 443.768 51.0555C445.204 51.7187 446.785 52.0239 448.37 51.9443ZM463.012 26.4956C463.989 26.5057 464.961 26.3533 465.887 26.0452C465.065 25.3563 464.024 24.9719 462.945 24.9588C461.839 24.9588 461.244 25.2106 461.244 25.7934C461.244 26.3763 461.703 26.4956 463.012 26.4956Z" fill="#D61116"/>
<path d="M481.771 50.8582L479.544 50.5404C479.6 49.6773 479.92 48.8511 480.462 48.169L480.65 47.9041L481.434 46.8177H481.96L480.462 48.1424C476.994 51.1497 474.119 52.5672 471.448 52.5672C469.287 52.5672 468.114 51.7988 468.114 50.4476C468.28 49.3401 468.745 48.2969 469.463 47.4271L478.155 34.6033H480.571L471.623 47.851C471 48.6167 470.594 49.5309 470.448 50.5006C470.448 51.3881 470.976 51.8254 471.946 51.8254C475.146 51.8254 480.705 47.851 484.686 41.9426L489.585 34.6299H492.135L482.85 48.5532C482.308 49.2263 481.939 50.0164 481.771 50.8582ZM479.544 50.5404C479.544 51.865 480.65 52.5938 482.243 52.5938C485.901 52.5938 488.518 48.6194 492.311 44.4464L491.716 44.0622C488.059 48.1028 485.254 51.6928 482.838 51.6928C482.054 51.6928 481.731 51.2424 481.731 50.8582L479.544 50.5404Z" fill="#D61116"/>
<path d="M487.748 50.474C487.911 49.3653 488.376 48.3211 489.097 47.4535L502.876 26.9329C510.878 14.3078 520.353 0.000366211 537.208 0.000366211C545.101 0.000366211 550 3.2063 550 8.59809C550 15.3941 542.43 19.1963 538.381 20.521L538.247 20.1368C542.038 18.8121 548.179 15.01 548.179 8.53185C548.179 3.65672 544.778 0.583264 537.382 0.583264C521.122 0.583264 512.565 15.2749 504.914 27.582L491.217 47.8377C490.594 48.6033 490.188 49.5176 490.042 50.4873C490.042 51.3748 490.568 51.6397 491.54 51.6397C494.752 51.6397 499.448 48.0497 503.106 44.0091L503.699 44.3933C499.907 48.553 495.467 52.5406 491.027 52.5406C488.923 52.5936 487.748 51.8252 487.748 50.474Z" fill="#D61116"/>
<path d="M505.762 56.9655L511.457 48.169C508.002 51.1762 505.127 52.5938 502.443 52.5938C500.283 52.5938 499.109 51.8254 499.109 50.4742C499.277 49.3672 499.742 48.3244 500.458 47.4537L509.15 34.6299H511.564L502.617 47.8775C501.989 48.6399 501.582 49.5557 501.443 50.5271C501.443 51.4146 501.956 51.8519 502.941 51.8519C506.139 51.8519 511.7 47.8775 515.681 41.9692L520.58 34.6564H523.13L515.033 46.7118L505.424 60.9397" fill="#D61116"/>
<path d="M166.381 33.994C169.256 33.994 171.159 35.3188 171.159 37.0013C171.159 40.4058 163.062 46.8045 154.007 44.685C153.241 46.0961 152.808 47.6578 152.738 49.2554C152.738 51.0439 153.197 51.8254 155.019 51.8254C161.388 51.8254 169.512 46.9105 177.489 36.6833H178.216C169.363 47.6789 161.388 52.5805 154.695 52.5805C151.173 52.5805 150.188 51.0306 150.188 48.5399C150.188 42.6448 159.783 33.994 166.381 33.994ZM168.609 37.0013C168.657 36.6847 168.629 36.3617 168.529 36.0572C168.429 35.7526 168.258 35.4747 168.031 35.2453C167.804 35.0158 167.526 34.8409 167.219 34.7343C166.912 34.6275 166.584 34.5918 166.26 34.6299C162.212 34.6299 156.814 39.3727 154.115 44.2477C162.346 46.0494 168.609 39.5581 168.609 37.0013Z" fill="#D61116"/>
<path d="M353.231 33.994C356.106 33.994 357.994 35.3188 357.994 37.0013C357.994 40.4058 349.898 46.8045 340.843 44.685C340.077 46.0961 339.644 47.6578 339.574 49.2554C339.574 51.0439 340.033 51.8254 341.868 51.8254C348.238 51.8254 357.441 46.9105 365.417 36.6833H366.145C357.292 47.6789 348.238 52.5805 341.545 52.5805C338.009 52.5805 337.024 51.0306 337.024 48.5399C337.024 42.6448 346.633 33.994 353.231 33.994ZM355.458 37.0013C355.503 36.6841 355.474 36.3608 355.372 36.0564C355.271 35.7519 355.099 35.4744 354.871 35.2453C354.643 35.0163 354.365 34.8416 354.056 34.7349C353.749 34.6283 353.42 34.5923 353.097 34.6299C349.116 34.6299 343.649 39.3727 341.018 44.2477C349.196 46.0494 355.458 39.5581 355.458 37.0013Z" fill="#D61116"/>
<path d="M406.68 41.1609C399.097 49.1095 391.363 52.5937 385.628 52.5937C382.106 52.5937 381.121 51.0437 381.121 48.5532C381.121 42.6446 390.73 33.9807 397.316 33.9807C400.189 33.9807 402.079 35.3055 402.079 36.988C402.079 40.3927 393.982 46.7912 384.926 44.6717C384.161 46.0828 383.727 47.6445 383.659 49.2421C383.659 51.0306 384.117 51.8121 385.939 51.8121C391.336 51.8121 398.894 48.222 405.951 40.8033L406.68 41.1609ZM399.541 37.0012C399.589 36.6847 399.562 36.3615 399.463 36.057C399.362 35.7525 399.193 35.4747 398.966 35.2452C398.739 35.0158 398.461 34.8409 398.152 34.7341C397.845 34.6274 397.517 34.5918 397.194 34.6298C393.213 34.6298 387.747 39.3725 385.115 44.2476C393.293 46.0494 399.541 39.5579 399.541 37.0012Z" fill="#D61116"/>
<path d="M519.731 39.3197L512.012 51.0704C504.037 63.7087 492.782 80.52 475.926 80.52C468.032 80.52 463.134 77.314 463.134 71.9355C463.134 65.1394 470.704 61.3373 474.752 59.9331L474.888 60.3305C471.096 61.6553 464.955 65.4574 464.955 71.9355C464.955 76.8105 468.355 79.8842 475.752 79.8842C492.012 79.8842 502.35 62.6621 509.987 50.3683L517.747 38.8295" fill="#D61116"/>
</g>
<defs>
<clipPath id="clip0_8_16">
<rect width="550" height="102.326" fill="white"/>
</clipPath>
</defs>
</svg>
